<?xml version="1.0" encoding="utf-8"?>
<!-- Generator: Adobe Illustrator 19.1.0, SVG Export Plug-In . SVG Version: 6.00 Build 0)  -->
<svg version="1.1" id="Layer_1" xmlns="http://www.w3.org/2000/svg" xmlns:xlink="http://www.w3.org/1999/xlink" x="0px" y="0px"
	 viewBox="0 0 500 500" style="enable-background:new 0 0 500 500;" xml:space="preserve">
<style type="text/css">
	.st0{fill:#1A1F4D;}
	.st1{fill:#0097DC;}
	.st2{fill:url(#SVGID_1_);}
	.st3{fill:url(#SVGID_2_);}
	.st4{fill:url(#SVGID_3_);}
	.st5{fill:url(#SVGID_4_);}
	.st6{fill:#1C204D;}
	.st7{fill:url(#SVGID_5_);}
	.st8{fill:#FFFFFF;}
	.st9{fill:url(#SVGID_6_);}
	.st10{fill:url(#SVGID_7_);}
	.st11{fill:url(#SVGID_8_);}
	.st12{fill:url(#SVGID_9_);}
	.st13{fill:url(#SVGID_10_);}
</style>
<g>
	<g>
		<path class="st8" d="M278.3,352.1l-6.7,7.9c-3-3.6-7.4-5.9-11.4-5.9c-7.2,0-12.7,5.7-12.7,13.2c0,7.6,5.5,13.4,12.7,13.4
			c3.8,0,8.2-2.1,11.4-5.3l6.7,7.1c-4.9,5-12.1,8.3-18.8,8.3c-13.7,0-23.9-10.1-23.9-23.4c0-13.1,10.5-23,24.3-23
			C266.8,344.4,273.8,347.4,278.3,352.1z"/>
		<path class="st8" d="M314.5,380.6v9.7h-30.8v-45.4h11.6v35.8H314.5z"/>
		<path class="st8" d="M366.2,367.5c0,13.2-10.5,23.3-24.6,23.3c-14,0-24.5-10-24.5-23.3c0-13.2,10.5-23,24.5-23
			C355.7,344.4,366.2,354.3,366.2,367.5z M328.9,367.6c0,7.7,5.9,13.6,12.9,13.6c7,0,12.6-5.9,12.6-13.6c0-7.7-5.6-13.4-12.6-13.4
			C334.7,354.1,328.9,359.9,328.9,367.6z"/>
		<path class="st8" d="M413.2,371.2c0,12-8,19.6-20.7,19.6c-12.8,0-21-7.6-21-19.6v-26.4h11.6v26.4c0,6.2,4,9.9,9.5,9.9
			c5.5,0,9.2-3.8,9.2-9.9v-26.4h11.5V371.2z"/>
		<path class="st8" d="M441.1,344.8c14.3,0,24.1,9.2,24.1,22.7c0,13.4-10,22.7-24.6,22.7h-19.1v-45.4H441.1z M433.1,381.1h8.2
			c7.1,0,12.1-5.5,12.1-13.4c0-8-5.3-13.6-12.7-13.6h-7.7V381.1z"/>
		<path class="st8" d="M123.4,367.6c0,12.8-10.5,23-23.8,23c-13.3,0-23.8-10.2-23.8-23c0-12.9,10.5-22.8,23.8-22.8
			C112.9,344.7,123.4,354.8,123.4,367.6z M81.1,367.6c0,10,8.4,18,18.6,18s18.4-8,18.4-18c0-10-8.3-17.9-18.4-17.9
			S81.1,357.6,81.1,367.6z"/>
		<path class="st8" d="M174.1,390.3l-0.1-37.5l-16.6,32.6h-3.1l-16.5-32.6v37.5H133v-45.4h6.4l16.6,32.7l16.6-32.7h6.4v45.4H174.1z"
			/>
		<path class="st8" d="M198,349.8v14.9h22.9v5H198v15.6h26.5v4.9h-31.7v-45.4h30.8v5H198z"/>
		<path class="st8" d="M52.5,349.2c5.2,0,9.3,4.2,9.3,9.3v17.8c0,5.2-4.2,9.3-9.3,9.3H35.3v-36.5H52.5 M52.5,344.7H30.8v45.6h21.7
			c7.7,0,13.9-6.2,13.9-13.9v-17.8C66.4,350.9,60.2,344.7,52.5,344.7L52.5,344.7z"/>
	</g>
	<path class="st8" d="M375.9,192L375.9,192c-2.4-3.1-5.3-5.9-8.3-8.4l0,0c-8.7-7.2-19.3-12.2-31.2-14c-9.5-34-36.9-61.1-71.1-70.1
		c-34.6-9.1-72.1,1.2-97.3,26.5c-14.1,14.1-23.8,32.3-27.6,51.8c-10.8,1.6-36.2,8.7-37.9,41c-17.3,9.4-25.9,30.5-20,49.3
		c5.6,17.6,22.8,29.6,41.1,29.6h55.9c7.3,0,7.3-11.3,0-11.3h-56.9c-15.8,0-29.4-12.6-30.6-28.3c-0.9-12.2,7.2-31.9,21.7-31.9
		c0-33.4,21.3-37.4,36.4-37.4c0-37.1,32.8-69.2,67-78.3c35.2-9.4,72.3,4.8,94.4,33.2c7.8,10,15.6,23.2,15.6,36.4
		c29.1,0,51,22.6,52,51.2c0,0.7,0.1,1.4,0.1,2.1c0,27.8-22.4,51.6-50.3,53H264h-0.5c-0.1,0-0.3,0-0.4,0
		c-10.1,1.7-15.9-7.7-15.9-16.4v-56.6c0-8.5,4.6-13.3,13.3-13.3h6.6h27.3c7.3,0,7.3-11.3,0-11.3h-33.9c-1.7,0-3.5,0.2-5.1,0.4
		c-11.8,2.1-20.5,11.4-19.5,24.4v56.4c0,10.9,4.7,21.2,15.3,25.5c0,0,0.1,0,0.1,0c6.1,2.5,12.5,2.2,18.9,2.2c0,0,58.3,0,59.3-0.1
		c0,0,61.1-2.1,61.1-66.4C390.1,217.3,385.4,203.5,375.9,192z"/>
	<g>
		<path class="st8" d="M260.4,203.6c-6.6,0-9.7,3.1-9.7,9.7v56.6c0,6.4,3.7,13,10,13c0.6,0,1.1-0.1,1.7-0.1l0.2,0l0.2,0
			c0.2,0,0.5,0,0.7,0h0.5l2.4,0c2.8-5.1,4.7-11.8,4.7-20.8c0-40,0-50.8,0-50.8s-0.5-3.3-2.3-7.5H267H260.4z"/>
		<path class="st8" d="M232.2,269.9v-56.2c-0.8-11.8,5.7-21.9,16.3-26.2c-0.7-0.1-1.5-0.1-2.3-0.1c-21.2,0-53.6,0-53.6,0v110.2h42.8
			c0,0,1.1,0.1,2.9,0.1c1.9,0,4.6-0.2,7.7-0.8C237.3,291.7,232.2,281.9,232.2,269.9z"/>
	</g>
</g>
</svg>
